<svg width="45" height="44" viewBox="0 0 45 44" fill="none" xmlns="http://www.w3.org/2000/svg">
<mask id="mask0_128_223" style="mask-type:luminance" maskUnits="userSpaceOnUse" x="0" y="0" width="45" height="44">
<path d="M44.4093 0H0.921101V43.4882H44.4093V0Z" fill="white"/>
</mask>
<g mask="url(#mask0_128_223)">
<g filter="url(#filter0_dd_128_223)">
<path d="M22.6651 43.4882C34.674 43.4882 44.4092 33.753 44.4092 21.7441C44.4092 9.73516 34.674 0 22.6651 0C10.6562 0 0.921001 9.73516 0.921001 21.7441C0.921001 33.753 10.6562 43.4882 22.6651 43.4882Z" fill="white"/>
<path fill-rule="evenodd" clip-rule="evenodd" d="M15.9018 9.06015C12.6319 9.06015 9.9811 11.7108 9.9811 14.9807V28.6341C9.9811 31.9041 12.6319 34.5548 15.9018 34.5548H29.5552C32.8251 34.5548 35.4759 31.9041 35.4759 28.6341V14.9807C35.4759 11.7108 32.8251 9.06015 29.5552 9.06015H15.9018ZM8.1691 14.9807C8.1691 10.7101 11.6311 7.24805 15.9018 7.24805H29.5552C33.8258 7.24805 37.2879 10.7101 37.2879 14.9807V28.6341C37.2879 32.9048 33.8258 36.3668 29.5552 36.3668H15.9018C11.6311 36.3668 8.1691 32.9048 8.1691 28.6341V14.9807ZM23.4559 17.2421C22.5081 17.1016 21.5402 17.2635 20.6897 17.7048C19.8392 18.1461 19.1495 18.8443 18.7187 19.7002C18.288 20.556 18.138 21.5259 18.2902 22.4719C18.4425 23.4179 18.8891 24.2918 19.5666 24.9693C20.2441 25.6469 21.118 26.0935 22.064 26.2457C23.01 26.3979 23.9799 26.248 24.8358 25.8172C25.6916 25.3864 26.3899 24.6968 26.8312 23.8463C27.2725 22.9958 27.4344 22.0278 27.2938 21.08C27.1505 20.1132 26.7 19.2182 26.0089 18.5271C25.3178 17.836 24.4227 17.3855 23.4559 17.2421ZM19.8551 16.0964C21.0439 15.4796 22.3969 15.2533 23.7217 15.4497C25.0731 15.6501 26.3241 16.2798 27.2901 17.2458C28.2561 18.2118 28.8858 19.4629 29.0862 20.8142C29.2827 22.139 29.0564 23.492 28.4396 24.6808C27.8227 25.8696 26.8467 26.8336 25.6504 27.4358C24.4541 28.0379 23.0984 28.2475 21.7762 28.0347C20.4539 27.8219 19.2324 27.1976 18.2853 26.2506C17.3383 25.3036 16.714 24.0821 16.5012 22.7598C16.2885 21.4375 16.4981 20.0818 17.1002 18.8855C17.7023 17.6892 18.6663 16.7132 19.8551 16.0964ZM30.2378 13.3919C29.7375 13.3919 29.3318 13.7975 29.3318 14.2979C29.3318 14.7983 29.7375 15.2039 30.2378 15.2039H30.2535C30.7539 15.2039 31.1595 14.7983 31.1595 14.2979C31.1595 13.7975 30.7539 13.3919 30.2535 13.3919H30.2378Z" fill="black"/>
</g>
</g>
<defs>
<filter id="filter0_dd_128_223" x="-42.5672" y="-28.9921" width="130.465" height="130.465" filterUnits="userSpaceOnUse" color-interpolation-filters="sRGB">
<feFlood flood-opacity="0" result="BackgroundImageFix"/>
<feColorMatrix in="SourceAlpha" type="matrix" values="0 0 0 0 0 0 0 0 0 0 0 0 0 0 0 0 0 0 127 0" result="hardAlpha"/>
<feOffset dy="14.4961"/>
<feGaussianBlur stdDeviation="21.7441"/>
<feColorMatrix type="matrix" values="0 0 0 0 0.0941176 0 0 0 0 0.152941 0 0 0 0 0.294118 0 0 0 0.08 0"/>
<feBlend mode="normal" in2="BackgroundImageFix" result="effect1_dropShadow_128_223"/>
<feColorMatrix in="SourceAlpha" type="matrix" values="0 0 0 0 0 0 0 0 0 0 0 0 0 0 0 0 0 0 127 0" result="hardAlpha"/>
<feOffset dy="10.872"/>
<feGaussianBlur stdDeviation="10.872"/>
<feColorMatrix type="matrix" values="0 0 0 0 0.0941176 0 0 0 0 0.152941 0 0 0 0 0.294118 0 0 0 0.12 0"/>
<feBlend mode="normal" in2="effect1_dropShadow_128_223" result="effect2_dropShadow_128_223"/>
<feBlend mode="normal" in="SourceGraphic" in2="effect2_dropShadow_128_223" result="shape"/>
</filter>
</defs>
</svg>
