<svg width="24" height="23" viewBox="0 0 24 23" fill="none" xmlns="http://www.w3.org/2000/svg">
<g clip-path="url(#clip0_69_291)">
<path fill-rule="evenodd" clip-rule="evenodd" d="M2.63916 6.05324C2.63916 5.30467 2.93653 4.58676 3.46585 4.05745C3.99517 3.52813 4.71308 3.23076 5.46165 3.23076H18.6332C19.3818 3.23076 20.0997 3.52813 20.629 4.05745C21.1584 4.58676 21.4557 5.30467 21.4557 6.05324V17.3432C21.4557 18.0918 21.1584 18.8097 20.629 19.339C20.0997 19.8683 19.3818 20.1657 18.6332 20.1657H5.46165C4.71308 20.1657 3.99517 19.8683 3.46585 19.339C2.93653 18.8097 2.63916 18.0918 2.63916 17.3432V6.05324ZM5.46165 5.11242C5.21212 5.11242 4.97282 5.21154 4.79638 5.38798C4.61994 5.56442 4.52082 5.80372 4.52082 6.05324V17.3432C4.52082 17.5927 4.61994 17.832 4.79638 18.0085C4.97282 18.1849 5.21212 18.284 5.46165 18.284H18.6332C18.8828 18.284 19.1221 18.1849 19.2985 18.0085C19.475 17.832 19.5741 17.5927 19.5741 17.3432V6.05324C19.5741 5.80372 19.475 5.56442 19.2985 5.38798C19.1221 5.21154 18.8828 5.11242 18.6332 5.11242H5.46165ZM15.8108 6.99407C15.8108 6.74455 15.9099 6.50525 16.0863 6.32881C16.2628 6.15237 16.5021 6.05324 16.7516 6.05324H17.6924C17.9419 6.05324 18.1812 6.15237 18.3577 6.32881C18.5341 6.50525 18.6332 6.74455 18.6332 6.99407C18.6332 7.2436 18.5341 7.4829 18.3577 7.65934C18.1812 7.83578 17.9419 7.9349 17.6924 7.9349H16.7516C16.5021 7.9349 16.2628 7.83578 16.0863 7.65934C15.9099 7.4829 15.8108 7.2436 15.8108 6.99407ZM9.22496 11.6982C9.22496 10.9496 9.52233 10.2317 10.0516 9.70242C10.581 9.1731 11.2989 8.87573 12.0474 8.87573C12.796 8.87573 13.5139 9.1731 14.0432 9.70242C14.5726 10.2317 14.8699 10.9496 14.8699 11.6982C14.8699 12.4468 14.5726 13.1647 14.0432 13.694C13.5139 14.2233 12.796 14.5207 12.0474 14.5207C11.2989 14.5207 10.581 14.2233 10.0516 13.694C9.52233 13.1647 9.22496 12.4468 9.22496 11.6982ZM12.0474 6.99407C10.7998 6.99407 9.60331 7.48969 8.72111 8.37188C7.83892 9.25408 7.3433 10.4506 7.3433 11.6982C7.3433 12.9458 7.83892 14.1423 8.72111 15.0245C9.60331 15.9067 10.7998 16.4024 12.0474 16.4024C13.2951 16.4024 14.4916 15.9067 15.3738 15.0245C16.256 14.1423 16.7516 12.9458 16.7516 11.6982C16.7516 10.4506 16.256 9.25408 15.3738 8.37188C14.4916 7.48969 13.2951 6.99407 12.0474 6.99407Z" fill="#3C096C"/>
</g>
<defs>
<clipPath id="clip0_69_291">
<rect width="22.5799" height="22.5799" fill="white" transform="translate(0.757324 0.408279)"/>
</clipPath>
</defs>
</svg>
