<svg width="79" height="79" viewBox="0 0 79 79" fill="none" xmlns="http://www.w3.org/2000/svg">
<g clip-path="url(#clip0_69_457)" filter="url(#filter0_dd_69_457)">
<circle cx="39.2933" cy="31.1957" r="18.8924" fill="white"/>
<path d="M51.4495 33.7886L39.2696 42.2163L27.0898 33.7886C26.9265 33.6742 26.8053 33.5137 26.7437 33.3298C26.6821 33.146 26.6831 32.9483 26.7467 32.7651L28.1419 28.6492L30.9324 20.4719C30.9595 20.4053 31.0026 20.3456 31.0582 20.2977C31.1488 20.2189 31.2671 20.1752 31.3899 20.1752C31.5126 20.1752 31.6309 20.2189 31.7215 20.2977C31.7803 20.3518 31.8236 20.4192 31.8473 20.4937L34.6378 28.6492H43.9014L46.6919 20.4719C46.719 20.4053 46.7621 20.3456 46.8177 20.2977C46.9083 20.2189 47.0266 20.1752 47.1494 20.1752C47.2721 20.1752 47.3904 20.2189 47.481 20.2977C47.5398 20.3518 47.5831 20.4192 47.6068 20.4937L50.3974 28.671L51.8498 32.7651C51.9076 32.954 51.8998 33.1556 51.8277 33.3399C51.7556 33.5243 51.623 33.6817 51.4495 33.7886V33.7886Z" stroke="black" stroke-width="1.57437" stroke-linecap="round" stroke-linejoin="round"/>
</g>
<defs>
<filter id="filter0_dd_69_457" x="0.400879" y="0.303345" width="77.7849" height="77.7848" filterUnits="userSpaceOnUse" color-interpolation-filters="sRGB">
<feFlood flood-opacity="0" result="BackgroundImageFix"/>
<feColorMatrix in="SourceAlpha" type="matrix" values="0 0 0 0 0 0 0 0 0 0 0 0 0 0 0 0 0 0 127 0" result="hardAlpha"/>
<feMorphology radius="4" operator="erode" in="SourceAlpha" result="effect1_dropShadow_69_457"/>
<feOffset dy="8"/>
<feGaussianBlur stdDeviation="12"/>
<feColorMatrix type="matrix" values="0 0 0 0 0.0941176 0 0 0 0 0.152941 0 0 0 0 0.294118 0 0 0 0.08 0"/>
<feBlend mode="normal" in2="BackgroundImageFix" result="effect1_dropShadow_69_457"/>
<feColorMatrix in="SourceAlpha" type="matrix" values="0 0 0 0 0 0 0 0 0 0 0 0 0 0 0 0 0 0 127 0" result="hardAlpha"/>
<feMorphology radius="6" operator="erode" in="SourceAlpha" result="effect2_dropShadow_69_457"/>
<feOffset dy="6"/>
<feGaussianBlur stdDeviation="6"/>
<feColorMatrix type="matrix" values="0 0 0 0 0.0941176 0 0 0 0 0.152941 0 0 0 0 0.294118 0 0 0 0.12 0"/>
<feBlend mode="normal" in2="effect1_dropShadow_69_457" result="effect2_dropShadow_69_457"/>
<feBlend mode="normal" in="SourceGraphic" in2="effect2_dropShadow_69_457" result="shape"/>
</filter>
<clipPath id="clip0_69_457">
<rect width="37.7848" height="37.7848" fill="white" transform="translate(20.4009 12.3033)"/>
</clipPath>
</defs>
</svg>
