<svg width="24" height="23" viewBox="0 0 24 23" fill="none" xmlns="http://www.w3.org/2000/svg">
<path d="M3.73877 11.7477C3.73877 12.8551 3.95688 13.9516 4.38065 14.9747C4.80442 15.9978 5.42555 16.9273 6.20857 17.7104C6.9916 18.4934 7.92118 19.1145 8.94425 19.5383C9.96732 19.9621 11.0638 20.1802 12.1712 20.1802C13.2786 20.1802 14.3751 19.9621 15.3982 19.5383C16.4212 19.1145 17.3508 18.4934 18.1338 17.7104C18.9169 16.9273 19.538 15.9978 19.9618 14.9747C20.3855 13.9516 20.6036 12.8551 20.6036 11.7477C20.6036 10.6404 20.3855 9.54386 19.9618 8.52079C19.538 7.49772 18.9169 6.56813 18.1338 5.78511C17.3508 5.00209 16.4212 4.38096 15.3982 3.95719C14.3751 3.53342 13.2786 3.31531 12.1712 3.31531C11.0638 3.31531 9.96732 3.53342 8.94425 3.95719C7.92118 4.38096 6.9916 5.00209 6.20857 5.78511C5.42555 6.56813 4.80442 7.49772 4.38065 8.52079C3.95688 9.54386 3.73877 10.6404 3.73877 11.7477Z" stroke="#3C096C" stroke-width="1.87387" stroke-linecap="round" stroke-linejoin="round"/>
<path d="M7.48657 9.87387V11.7477C7.48657 12.2447 7.684 12.7214 8.03542 13.0728C8.38684 13.4242 8.86346 13.6216 9.36045 13.6216C9.85743 13.6216 10.3341 13.4242 10.6855 13.0728C11.0369 12.7214 11.2343 12.2447 11.2343 11.7477V9.87387M14.0451 9.87387L16.8559 13.6216M14.0451 13.6216L16.8559 9.87387" stroke="#3C096C" stroke-width="1.87387" stroke-linecap="round" stroke-linejoin="round"/>
</svg>
