<svg width="27" height="26" viewBox="0 0 27 26" fill="none" xmlns="http://www.w3.org/2000/svg">
<path d="M12.517 1.78122C12.9684 0.708992 14.5059 0.708994 14.9574 1.78123L17.6217 8.10972C17.8121 8.56175 18.2424 8.8706 18.7364 8.90972L25.652 9.45746C26.8238 9.55026 27.2989 10.9948 26.4062 11.7503L21.1372 16.2092C20.7608 16.5278 20.5964 17.0275 20.7114 17.5037L22.3212 24.1707C22.5939 25.3003 21.3501 26.1931 20.3469 25.5879L14.426 22.015C14.0031 21.7598 13.4713 21.7598 13.0483 22.015L7.12749 25.5879C6.12431 26.1931 4.88044 25.3003 5.15318 24.1707L6.76297 17.5037C6.87795 17.0275 6.71359 16.5278 6.33725 16.2092L1.06816 11.7503C0.175424 10.9948 0.650546 9.55026 1.82228 9.45746L8.73804 8.90972C9.23202 8.8706 9.66232 8.56175 9.85262 8.10972L12.517 1.78122Z" fill="white"/>
</svg>
