<svg width="27" height="26" viewBox="0 0 27 26" fill="none" xmlns="http://www.w3.org/2000/svg">
<path d="M12.06 1.78128C12.5114 0.709053 14.0489 0.709055 14.5003 1.78129L17.1647 8.10979C17.3551 8.56181 17.7854 8.87066 18.2793 8.90979L25.195 9.45752C26.3667 9.55033 26.8419 10.9949 25.9491 11.7504L20.6801 16.2093C20.3038 16.5278 20.1394 17.0276 20.2543 17.5037L21.8641 24.1708C22.1368 25.3003 20.893 26.1932 19.8898 25.5879L13.969 22.0151C13.5461 21.7599 13.0142 21.7599 12.5913 22.0151L6.67046 25.5879C5.66728 26.1932 4.42341 25.3003 4.69615 24.1708L6.30594 17.5037C6.42092 17.0276 6.25656 16.5278 5.88022 16.2093L0.611127 11.7504C-0.281608 10.9949 0.193514 9.55033 1.36524 9.45752L8.28101 8.90979C8.77499 8.87066 9.20529 8.56181 9.39559 8.10979L12.06 1.78128Z" fill="white"/>
</svg>
