<svg width="27" height="26" viewBox="0 0 27 26" fill="none" xmlns="http://www.w3.org/2000/svg">
<path d="M11.9864 1.78128C12.4378 0.709053 13.9753 0.709055 14.4267 1.78129L17.0911 8.10979C17.2815 8.56181 17.7118 8.87066 18.2057 8.90979L25.1214 9.45752C26.2931 9.55033 26.7682 10.9949 25.8755 11.7504L20.6065 16.2093C20.2302 16.5278 20.0658 17.0276 20.1807 17.5037L21.7905 24.1708C22.0632 25.3003 20.8194 26.1932 19.8162 25.5879L13.8954 22.0151C13.4725 21.7599 12.9406 21.7599 12.5177 22.0151L6.59685 25.5879C5.59367 26.1932 4.3498 25.3003 4.62254 24.1708L6.23233 17.5037C6.34731 17.0276 6.18295 16.5278 5.80661 16.2093L0.537518 11.7504C-0.355216 10.9949 0.119906 9.55033 1.29164 9.45752L8.2074 8.90979C8.70138 8.87066 9.13168 8.56181 9.32198 8.10979L11.9864 1.78128Z" fill="white"/>
</svg>
