<svg width="27" height="26" viewBox="0 0 27 26" fill="none" xmlns="http://www.w3.org/2000/svg">
<path d="M12.5049 1.78128C12.9563 0.709053 14.4939 0.709055 14.9453 1.78129L17.6096 8.10979C17.8 8.56181 18.2303 8.87066 18.7243 8.90979L25.64 9.45752C26.8117 9.55033 27.2868 10.9949 26.3941 11.7504L21.1251 16.2093C20.7488 16.5278 20.5843 17.0276 20.6993 17.5037L22.3091 24.1708C22.5818 25.3003 21.338 26.1932 20.3348 25.5879L14.414 22.0151C13.991 21.7599 13.4592 21.7599 13.0363 22.0151L7.1154 25.5879C6.11223 26.1932 4.86835 25.3003 5.14109 24.1708L6.75088 17.5037C6.86587 17.0276 6.7015 16.5278 6.32516 16.2093L1.05607 11.7504C0.163339 10.9949 0.638461 9.55033 1.81019 9.45752L8.72595 8.90979C9.21993 8.87066 9.65023 8.56181 9.84054 8.10979L12.5049 1.78128Z" fill="white"/>
</svg>
