<svg width="27" height="26" viewBox="0 0 27 26" fill="none" xmlns="http://www.w3.org/2000/svg">
<path d="M12.5417 1.78128C12.9931 0.709053 14.5306 0.709055 14.982 1.78129L17.6464 8.10979C17.8368 8.56181 18.2671 8.87066 18.761 8.90979L25.6767 9.45752C26.8484 9.55033 27.3235 10.9949 26.4308 11.7504L21.1618 16.2093C20.7855 16.5278 20.6211 17.0276 20.736 17.5037L22.3458 24.1708C22.6185 25.3003 21.3747 26.1932 20.3715 25.5879L14.4507 22.0151C14.0278 21.7599 13.4959 21.7599 13.073 22.0151L7.15215 25.5879C6.14897 26.1932 4.9051 25.3003 5.17783 24.1708L6.78763 17.5037C6.90261 17.0276 6.73825 16.5278 6.36191 16.2093L1.09282 11.7504C0.200082 10.9949 0.675204 9.55033 1.84693 9.45752L8.7627 8.90979C9.25668 8.87066 9.68698 8.56181 9.87728 8.10979L12.5417 1.78128Z" fill="white"/>
</svg>
