<svg width="27" height="26" viewBox="0 0 27 26" fill="none" xmlns="http://www.w3.org/2000/svg">
<path d="M12.0232 1.78128C12.4747 0.709053 14.0122 0.709055 14.4636 1.78129L17.1279 8.10979C17.3183 8.56181 17.7487 8.87066 18.2426 8.90979L25.1583 9.45752C26.33 9.55033 26.8051 10.9949 25.9124 11.7504L20.6434 16.2093C20.2671 16.5278 20.1026 17.0276 20.2176 17.5037L21.8274 24.1708C22.1001 25.3003 20.8563 26.1932 19.8531 25.5879L13.9323 22.0151C13.5094 21.7599 12.9775 21.7599 12.5546 22.0151L6.63371 25.5879C5.63054 26.1932 4.38667 25.3003 4.6594 24.1708L6.26919 17.5037C6.38418 17.0276 6.21981 16.5278 5.84348 16.2093L0.574384 11.7504C-0.318351 10.9949 0.156771 9.55033 1.3285 9.45752L8.24426 8.90979C8.73824 8.87066 9.16854 8.56181 9.35885 8.10979L12.0232 1.78128Z" fill="white"/>
</svg>
