<svg width="26" height="34" viewBox="0 0 26 34" fill="none" xmlns="http://www.w3.org/2000/svg">
<path d="M12.5714 33.2941C12.2104 33.2941 11.8821 33.13 11.6524 32.8674C10.4707 31.5216 0 19.6067 0 13.042C0 6.11623 5.64565 0.470589 12.5714 0.470589C19.4972 0.470589 25.1428 6.11623 25.1428 13.042C25.1428 19.5739 14.6721 31.5216 13.4905 32.8674C13.2607 33.13 12.9325 33.2941 12.5714 33.2941ZM12.5714 2.96518C7.02424 2.96518 2.49459 7.49482 2.49459 13.042C2.49459 17.3747 9.09212 26.0073 12.5714 30.1431C16.0507 26.0401 22.6482 17.3747 22.6482 13.042C22.6482 7.49482 18.1186 2.96518 12.5714 2.96518Z" fill="url(#paint0_linear_99_176)"/>
<path d="M12.5717 19.508C9.09236 19.508 6.26953 16.6852 6.26953 13.2059C6.26953 9.72663 9.09236 6.9038 12.5717 6.9038C16.0509 6.9038 18.8738 9.72663 18.8738 13.2059C18.8738 16.6852 16.0509 19.508 12.5717 19.508ZM12.5717 9.39839C10.4709 9.39839 8.76412 11.1052 8.76412 13.2059C8.76412 15.3066 10.4709 17.0135 12.5717 17.0135C14.6724 17.0135 16.3792 15.3066 16.3792 13.2059C16.3792 11.1052 14.6724 9.39839 12.5717 9.39839Z" fill="url(#paint1_linear_99_176)"/>
<defs>
<linearGradient id="paint0_linear_99_176" x1="12.5714" y1="0.470589" x2="12.5714" y2="33.2941" gradientUnits="userSpaceOnUse">
<stop stop-color="#B356C1"/>
<stop offset="1" stop-color="#9734A6"/>
</linearGradient>
<linearGradient id="paint1_linear_99_176" x1="12.5717" y1="6.9038" x2="12.5717" y2="19.508" gradientUnits="userSpaceOnUse">
<stop stop-color="#B356C1"/>
<stop offset="1" stop-color="#9734A6"/>
</linearGradient>
</defs>
</svg>
