<svg width="50" height="50" viewBox="0 0 50 50" fill="none" xmlns="http://www.w3.org/2000/svg">
<path d="M25.0007 24.9999C26.1465 24.9999 27.1277 24.5916 27.9444 23.7749C28.7597 22.9597 29.1673 21.9791 29.1673 20.8333C29.1673 19.6874 28.7597 18.7062 27.9444 17.8895C27.1277 17.0742 26.1465 16.6666 25.0007 16.6666C23.8548 16.6666 22.8743 17.0742 22.059 17.8895C21.2423 18.7062 20.834 19.6874 20.834 20.8333C20.834 21.9791 21.2423 22.9597 22.059 23.7749C22.8743 24.5916 23.8548 24.9999 25.0007 24.9999ZM25.0007 45.052C24.7229 45.052 24.4451 44.9999 24.1673 44.8958C23.8895 44.7916 23.6465 44.6527 23.4382 44.4791C18.3687 39.9999 14.584 35.8423 12.084 32.0062C9.58398 28.1687 8.33398 24.5833 8.33398 21.2499C8.33398 16.0416 10.0097 11.8923 13.3611 8.80201C16.7111 5.71173 20.5909 4.1666 25.0007 4.1666C29.4104 4.1666 33.2902 5.71173 36.6402 8.80201C39.9916 11.8923 41.6673 16.0416 41.6673 21.2499C41.6673 24.5833 40.4173 28.1687 37.9173 32.0062C35.4173 35.8423 31.6326 39.9999 26.5632 44.4791C26.3548 44.6527 26.1118 44.7916 25.834 44.8958C25.5562 44.9999 25.2784 45.052 25.0007 45.052Z" fill="#FF5F5F"/>
</svg>
