<svg width="33" height="34" viewBox="0 0 33 34" fill="none" xmlns="http://www.w3.org/2000/svg">
<g clip-path="url(#clip0_99_182)">
<path d="M17.5786 9.46394C19.1845 9.73961 20.6526 10.4993 21.8226 11.6661C22.9862 12.8296 23.7491 14.2977 24.0247 15.9068C24.1305 16.5415 24.6754 16.9999 25.3197 16.9999C25.4031 16.9999 25.4768 16.9903 25.5281 16.9807C25.5313 16.9807 25.5345 16.9807 25.5377 16.9775C25.8871 16.9198 26.1916 16.7306 26.3935 16.4389C26.5955 16.1505 26.6724 15.8043 26.6115 15.4613C26.2461 13.3137 25.2332 11.3583 23.6785 9.80372C22.1175 8.24909 20.159 7.23617 18.0146 6.87396H18.0113C17.2965 6.75536 16.6202 7.23938 16.5016 7.95098C16.3894 8.669 16.8702 9.34534 17.5786 9.46394Z" fill="url(#paint0_linear_99_182)"/>
<path d="M25.6601 20.4677C24.9421 19.7208 24.0734 19.3266 23.1471 19.3266C22.2303 19.3266 21.3552 19.7144 20.6212 20.4517L18.7973 22.2756C18.7524 22.2531 18.7076 22.2307 18.6659 22.2082L18.5729 22.1634C18.3774 22.064 18.153 21.9518 17.9671 21.8364C16.0951 20.6472 14.3866 19.0894 12.7391 17.0699C12.0339 16.182 11.5402 15.4288 11.178 14.6787C11.6364 14.246 12.0627 13.8132 12.4634 13.4029C12.5531 13.3132 12.6429 13.2202 12.7359 13.1273C12.8256 13.0343 12.9186 12.9414 13.0115 12.8484C13.7744 12.0855 14.1783 11.2008 14.1751 10.2905C14.1751 9.38334 13.7712 8.50185 13.0115 7.74537L11.2389 5.97277C11.1363 5.8702 11.0338 5.76763 10.9344 5.66505C10.835 5.56248 10.7325 5.4599 10.6331 5.36054L10.4921 5.21629C10.1427 4.86049 9.78045 4.49187 9.41504 4.1553C8.70343 3.4469 7.84117 3.07187 6.92763 3.07187C6.01729 3.07187 5.14862 3.4469 4.40816 4.1553C4.40496 4.1585 4.40175 4.1585 4.40175 4.16171L2.18039 6.37986C1.27326 7.287 0.757187 8.39287 0.644997 9.66542V9.66862C0.526397 11.1752 0.798858 12.7651 1.50405 14.6723C2.57146 17.5572 4.17417 20.2305 6.54298 23.0833C9.43427 26.5291 12.9057 29.2473 16.858 31.161H16.8612C18.3838 31.8886 20.4289 32.7413 22.7368 32.8919C22.74 32.8919 22.7432 32.8919 22.7464 32.8919H22.7624C22.8938 32.8983 23.0317 32.9047 23.1759 32.9047C24.7947 32.9047 26.1602 32.3181 27.2308 31.161L27.2468 31.145C27.2596 31.1321 27.2692 31.1225 27.2789 31.1097C27.5994 30.725 27.968 30.3692 28.3815 29.9718C28.6668 29.6993 28.9585 29.4204 29.2406 29.1191C29.9682 28.3594 30.3529 27.4747 30.3497 26.5612C30.3464 25.6445 29.9554 24.7694 29.2181 24.0321L25.6601 20.4677ZM25.3075 29.4012C24.737 30.0102 24.083 30.2827 23.1919 30.2827C23.1086 30.2827 23.0156 30.2763 22.9195 30.2699C21.0732 30.1513 19.3262 29.4204 18.012 28.7954C14.3834 27.0484 11.2037 24.561 8.55919 21.4005C6.39553 18.7945 4.93706 16.3648 3.97223 13.7619C3.39525 12.2137 3.17728 11.0149 3.26703 9.88339C3.32473 9.22307 3.57155 8.69738 4.04275 8.2326L6.24808 6.02726C6.47887 5.80609 6.71607 5.68749 6.93724 5.68749C7.1456 5.68749 7.36677 5.80289 7.60077 6.03047C7.60397 6.03368 7.60718 6.03688 7.61038 6.04009C7.99183 6.39909 8.36366 6.77733 8.75792 7.17481L8.77075 7.18763C8.95986 7.38316 9.17783 7.60754 9.39901 7.8223L11.1684 9.59169C11.6845 10.1078 11.6845 10.47 11.1684 10.9861C10.9825 11.172 10.7934 11.3611 10.6075 11.5534L10.476 11.688C9.97919 12.1913 9.5112 12.6657 9.00153 13.1177C8.99512 13.1241 8.98551 13.1305 8.9791 13.1401L8.94704 13.1722C8.40533 13.7139 8.25788 14.3614 8.51111 15.0922C8.51752 15.1114 8.52393 15.1275 8.53034 15.1435C8.53354 15.1531 8.53675 15.1627 8.54316 15.1723C9.01756 16.3167 9.68429 17.4033 10.71 18.7015C10.71 18.7047 10.7132 18.7047 10.7132 18.7079C12.5339 20.9485 14.454 22.6987 16.5856 24.0514C16.8644 24.2277 17.1529 24.3751 17.4222 24.5097C17.6209 24.6091 17.8453 24.7245 18.0312 24.8367C18.044 24.8463 18.0569 24.8527 18.0697 24.8591L18.0793 24.8655C18.0985 24.8752 18.1178 24.888 18.1402 24.8976C18.4191 25.0386 18.6947 25.1059 18.98 25.1059C19.4672 25.1059 19.916 24.904 20.2782 24.5226L22.4964 22.3044C22.6566 22.1441 22.9067 21.9518 23.1695 21.9518C23.4131 21.9518 23.6503 22.1409 23.8042 22.3012C23.8074 22.3044 23.8074 22.3044 23.8106 22.3076L27.391 25.8881C27.7436 26.2407 27.9841 26.6574 27.3622 27.3113L27.359 27.3145C27.1635 27.526 26.9551 27.728 26.7339 27.9427C26.6859 27.9876 26.6378 28.0357 26.5897 28.0838C26.1409 28.5037 25.7114 28.9204 25.3075 29.4012Z" fill="url(#paint1_linear_99_182)"/>
<path d="M32.1855 15.2047C31.5957 11.7332 29.9546 8.56628 27.4383 6.05002C24.9124 3.53056 21.7455 1.88939 18.2708 1.30279C17.556 1.18419 16.8796 1.66821 16.761 2.37982C16.6424 3.09462 17.1265 3.77097 17.8349 3.88957C20.7742 4.38962 23.4508 5.78077 25.5792 7.90596C27.7076 10.0344 29.0955 12.7109 29.5956 15.6471C29.7013 16.2817 30.2463 16.7401 30.8906 16.7401C30.8938 16.7401 30.897 16.7401 30.9002 16.7401C30.9803 16.7401 31.0476 16.7305 31.0989 16.7209C31.1021 16.7209 31.1053 16.7209 31.1085 16.7177C31.4579 16.66 31.7624 16.4709 31.9644 16.1792C32.1695 15.8939 32.2464 15.5477 32.1855 15.2047Z" fill="url(#paint2_linear_99_182)"/>
</g>
<defs>
<linearGradient id="paint0_linear_99_182" x1="21.5586" y1="6.85608" x2="21.5586" y2="16.9999" gradientUnits="userSpaceOnUse">
<stop stop-color="#B356C1"/>
<stop offset="1" stop-color="#9734A6"/>
</linearGradient>
<linearGradient id="paint1_linear_99_182" x1="15.4839" y1="3.07187" x2="15.4839" y2="32.9047" gradientUnits="userSpaceOnUse">
<stop stop-color="#B356C1"/>
<stop offset="1" stop-color="#9734A6"/>
</linearGradient>
<linearGradient id="paint2_linear_99_182" x1="24.4745" y1="1.28491" x2="24.4745" y2="16.7401" gradientUnits="userSpaceOnUse">
<stop stop-color="#B356C1"/>
<stop offset="1" stop-color="#9734A6"/>
</linearGradient>
<clipPath id="clip0_99_182">
<rect width="32.8235" height="32.8235" fill="white" transform="translate(0 0.683823)"/>
</clipPath>
</defs>
</svg>
