<svg width="36" height="36" viewBox="0 0 36 36" fill="none" xmlns="http://www.w3.org/2000/svg">
<path fill-rule="evenodd" clip-rule="evenodd" d="M3.59204 9.18321L3.77471 8.97771C4.44418 8.27764 5.44154 7.92738 6.76586 7.92738H29.4621C30.7102 7.92738 31.6692 8.23197 32.3391 8.84071L32.362 8.86354C32.499 8.98547 32.6364 9.12978 32.7729 9.29737C32.7729 9.3129 32.7807 9.32797 32.7958 9.34304L32.8186 9.36587C33.3214 9.99013 33.5721 10.8729 33.5721 12.0145V24.9382C33.557 27.6782 32.187 29.0482 29.4621 29.0482H6.76586C4.04094 29.0331 2.67871 27.6631 2.67871 24.9382V12.0145C2.67871 10.7815 2.98331 9.83761 3.59204 9.18321ZM30.2156 10.165C29.9873 10.1043 29.7361 10.081 29.4626 10.0965H6.76586C6.59827 10.0815 6.43844 10.0888 6.28637 10.1194L18.0455 22.0383L30.2156 10.165ZM4.84787 11.7634C4.8328 11.8396 4.8328 11.9232 4.84787 12.0145V24.9382C4.84787 26.2324 5.4872 26.879 6.76586 26.879H29.4621C30.7559 26.879 31.403 26.2324 31.403 24.9382V12.0374L18.799 24.3445C18.5707 24.5578 18.3122 24.6642 18.0231 24.6642C17.7185 24.6491 17.4596 24.5422 17.2468 24.3445L4.84787 11.7634Z" fill="url(#paint0_linear_99_188)"/>
<path fill-rule="evenodd" clip-rule="evenodd" d="M3.5918 9.18282C3.62239 9.13716 3.6603 9.09149 3.70596 9.04583C3.72149 9.01523 3.74386 8.9924 3.77446 8.97733L3.5918 9.18282Z" fill="url(#paint1_linear_99_188)"/>
<defs>
<linearGradient id="paint0_linear_99_188" x1="18.1254" y1="7.92738" x2="18.1254" y2="29.0482" gradientUnits="userSpaceOnUse">
<stop stop-color="#B356C1"/>
<stop offset="1" stop-color="#9734A6"/>
</linearGradient>
<linearGradient id="paint1_linear_99_188" x1="3.68313" y1="8.97733" x2="3.68313" y2="9.18282" gradientUnits="userSpaceOnUse">
<stop stop-color="#B356C1"/>
<stop offset="1" stop-color="#9734A6"/>
</linearGradient>
</defs>
</svg>
