<svg width="84" height="84" viewBox="0 0 84 84" fill="none" xmlns="http://www.w3.org/2000/svg">
<g clip-path="url(#clip0_81_145)" filter="url(#filter0_dd_81_145)">
<circle cx="42.1454" cy="33.7441" r="21.7441" fill="white"/>
<path d="M33.0854 23.778C33.0854 22.5766 33.5627 21.4244 34.4123 20.5748C35.2618 19.7253 36.414 19.248 37.6155 19.248H42.1455V28.3081H37.6155C36.414 28.3081 35.2618 27.8308 34.4123 26.9812C33.5627 26.1317 33.0854 24.9795 33.0854 23.778Z" stroke="black" stroke-width="1.81201" stroke-linecap="round" stroke-linejoin="round"/>
<path d="M42.1455 19.248H46.6755C47.2704 19.248 47.8595 19.3652 48.4091 19.5929C48.9587 19.8205 49.4581 20.1542 49.8787 20.5748C50.2994 20.9955 50.6331 21.4949 50.8607 22.0445C51.0884 22.5941 51.2055 23.1832 51.2055 23.778C51.2055 24.3729 51.0884 24.962 50.8607 25.5116C50.6331 26.0612 50.2994 26.5606 49.8787 26.9812C49.4581 27.4019 48.9587 27.7356 48.4091 27.9632C47.8595 28.1909 47.2704 28.3081 46.6755 28.3081H42.1455V19.248Z" stroke="black" stroke-width="1.81201" stroke-linecap="round" stroke-linejoin="round"/>
<path d="M42.1455 32.8381C42.1455 32.2432 42.2627 31.6541 42.4903 31.1045C42.718 30.5549 43.0517 30.0555 43.4723 29.6349C43.893 29.2142 44.3924 28.8805 44.942 28.6529C45.4916 28.4252 46.0806 28.3081 46.6755 28.3081C47.2704 28.3081 47.8595 28.4252 48.4091 28.6529C48.9587 28.8805 49.4581 29.2142 49.8787 29.6349C50.2994 30.0555 50.6331 30.5549 50.8607 31.1045C51.0884 31.6541 51.2055 32.2432 51.2055 32.8381C51.2055 33.433 51.0884 34.022 50.8607 34.5716C50.6331 35.1212 50.2994 35.6206 49.8787 36.0413C49.4581 36.4619 48.9587 36.7956 48.4091 37.0233C47.8595 37.2509 47.2704 37.3681 46.6755 37.3681C46.0806 37.3681 45.4916 37.2509 44.942 37.0233C44.3924 36.7956 43.893 36.4619 43.4723 36.0413C43.0517 35.6206 42.718 35.1212 42.4903 34.5716C42.2627 34.022 42.1455 33.433 42.1455 32.8381V32.8381Z" stroke="black" stroke-width="1.81201" stroke-linecap="round" stroke-linejoin="round"/>
<path d="M33.0854 41.8981C33.0854 40.6967 33.5627 39.5444 34.4123 38.6949C35.2618 37.8454 36.414 37.3681 37.6155 37.3681H42.1455V41.8981C42.1455 43.0995 41.6682 44.2518 40.8187 45.1013C39.9691 45.9509 38.8169 46.4281 37.6155 46.4281C36.414 46.4281 35.2618 45.9509 34.4123 45.1013C33.5627 44.2518 33.0854 43.0995 33.0854 41.8981Z" stroke="black" stroke-width="1.81201" stroke-linecap="round" stroke-linejoin="round"/>
<path d="M33.0854 32.8381C33.0854 31.6366 33.5627 30.4844 34.4123 29.6349C35.2618 28.7853 36.414 28.3081 37.6155 28.3081H42.1455V37.3681H37.6155C36.414 37.3681 35.2618 36.8908 34.4123 36.0413C33.5627 35.1917 33.0854 34.0395 33.0854 32.8381Z" stroke="black" stroke-width="1.81201" stroke-linecap="round" stroke-linejoin="round"/>
</g>
<defs>
<filter id="filter0_dd_81_145" x="0.401367" y="0" width="83.4882" height="83.4882" filterUnits="userSpaceOnUse" color-interpolation-filters="sRGB">
<feFlood flood-opacity="0" result="BackgroundImageFix"/>
<feColorMatrix in="SourceAlpha" type="matrix" values="0 0 0 0 0 0 0 0 0 0 0 0 0 0 0 0 0 0 127 0" result="hardAlpha"/>
<feMorphology radius="4" operator="erode" in="SourceAlpha" result="effect1_dropShadow_81_145"/>
<feOffset dy="8"/>
<feGaussianBlur stdDeviation="12"/>
<feColorMatrix type="matrix" values="0 0 0 0 0.0941176 0 0 0 0 0.152941 0 0 0 0 0.294118 0 0 0 0.08 0"/>
<feBlend mode="normal" in2="BackgroundImageFix" result="effect1_dropShadow_81_145"/>
<feColorMatrix in="SourceAlpha" type="matrix" values="0 0 0 0 0 0 0 0 0 0 0 0 0 0 0 0 0 0 127 0" result="hardAlpha"/>
<feMorphology radius="6" operator="erode" in="SourceAlpha" result="effect2_dropShadow_81_145"/>
<feOffset dy="6"/>
<feGaussianBlur stdDeviation="6"/>
<feColorMatrix type="matrix" values="0 0 0 0 0.0941176 0 0 0 0 0.152941 0 0 0 0 0.294118 0 0 0 0.12 0"/>
<feBlend mode="normal" in2="effect1_dropShadow_81_145" result="effect2_dropShadow_81_145"/>
<feBlend mode="normal" in="SourceGraphic" in2="effect2_dropShadow_81_145" result="shape"/>
</filter>
<clipPath id="clip0_81_145">
<rect width="43.4882" height="43.4882" fill="white" transform="translate(20.4014 12)"/>
</clipPath>
</defs>
</svg>
